<svg width="22" height="22" viewBox="0 0 22 22" fill="none" xmlns="http://www.w3.org/2000/svg">
<path d="M9.91694 1C8.03966 1.2098 6.25977 1.9454 4.78212 3.12215C3.30446 4.29889 2.18911 5.86896 1.56441 7.65164C0.939717 9.43432 0.831077 11.3572 1.25099 13.1989C1.67091 15.0406 2.60232 16.7263 3.93802 18.062C5.27372 19.3977 6.95943 20.3291 8.80113 20.749C10.6428 21.1689 12.5657 21.0603 14.3484 20.4356C16.131 19.8109 17.7011 18.6955 18.8779 17.2179C20.0546 15.7402 20.7902 13.9603 21 12.0831H9.91694V1Z" stroke="#404345" stroke-width="1.5" stroke-linecap="round" stroke-linejoin="round"/>
<path d="M20.4907 7.6253H14.3746V1.50928C15.7848 2.00958 17.0656 2.81822 18.1237 3.87627C19.1817 4.93432 19.9904 6.21511 20.4907 7.6253Z" stroke="#404345" stroke-width="1.5" stroke-linecap="round" stroke-linejoin="round"/>
</svg>
