<svg width="22" height="18" viewBox="0 0 22 18" fill="none" xmlns="http://www.w3.org/2000/svg">
<path d="M16.5556 5.44444V3.22222C16.5556 2.63285 16.3214 2.06762 15.9047 1.65087C15.4879 1.23413 14.9227 1 14.3333 1H3.22222C2.63285 1 2.06762 1.23413 1.65087 1.65087C1.23413 2.06762 1 2.63285 1 3.22222V9.88889C1 10.4783 1.23413 11.0435 1.65087 11.4602C2.06762 11.877 2.63285 12.1111 3.22222 12.1111H5.44444M7.66667 16.5556H18.7778C19.3671 16.5556 19.9324 16.3214 20.3491 15.9047C20.7659 15.4879 21 14.9227 21 14.3333V7.66667C21 7.0773 20.7659 6.51207 20.3491 6.09532C19.9324 5.67857 19.3671 5.44444 18.7778 5.44444H7.66667C7.0773 5.44444 6.51207 5.67857 6.09532 6.09532C5.67857 6.51207 5.44444 7.0773 5.44444 7.66667V14.3333C5.44444 14.9227 5.67857 15.4879 6.09532 15.9047C6.51207 16.3214 7.0773 16.5556 7.66667 16.5556ZM15.4444 11C15.4444 11.5894 15.2103 12.1546 14.7936 12.5713C14.3768 12.9881 13.8116 13.2222 13.2222 13.2222C12.6329 13.2222 12.0676 12.9881 11.6509 12.5713C11.2341 12.1546 11 11.5894 11 11C11 10.4106 11.2341 9.8454 11.6509 9.42865C12.0676 9.0119 12.6329 8.77778 13.2222 8.77778C13.8116 8.77778 14.3768 9.0119 14.7936 9.42865C15.2103 9.8454 15.4444 10.4106 15.4444 11Z" stroke="#C0C2C5" stroke-width="1" stroke-linecap="round" stroke-linejoin="round"/>
</svg>
